<svg width="12" height="4" viewBox="0 0 12 4" fill="none" xmlns="http://www.w3.org/2000/svg">
<path d="M1.5 3.5C1.0875 3.5 0.734375 3.35313 0.440625 3.05938C0.146875 2.76562 0 2.4125 0 2C0 1.5875 0.146875 1.23438 0.440625 0.940625C0.734375 0.646875 1.0875 0.5 1.5 0.5C1.9125 0.5 2.26562 0.646875 2.55938 0.940625C2.85313 1.23438 3 1.5875 3 2C3 2.4125 2.85313 2.76562 2.55938 3.05938C2.26562 3.35313 1.9125 3.5 1.5 3.5ZM6 3.5C5.5875 3.5 5.23438 3.35313 4.94063 3.05938C4.64688 2.76562 4.5 2.4125 4.5 2C4.5 1.5875 4.64688 1.23438 4.94063 0.940625C5.23438 0.646875 5.5875 0.5 6 0.5C6.4125 0.5 6.76563 0.646875 7.05938 0.940625C7.35313 1.23438 7.5 1.5875 7.5 2C7.5 2.4125 7.35313 2.76562 7.05938 3.05938C6.76563 3.35313 6.4125 3.5 6 3.5ZM10.5 3.5C10.0875 3.5 9.73438 3.35313 9.44063 3.05938C9.14688 2.76562 9 2.4125 9 2C9 1.5875 9.14688 1.23438 9.44063 0.940625C9.73438 0.646875 10.0875 0.5 10.5 0.5C10.9125 0.5 11.2656 0.646875 11.5594 0.940625C11.8531 1.23438 12 1.5875 12 2C12 2.4125 11.8531 2.76562 11.5594 3.05938C11.2656 3.35313 10.9125 3.5 10.5 3.5Z" fill="white"/>
</svg>
