<svg width="32" height="32" viewBox="0 0 32 32" fill="none" xmlns="http://www.w3.org/2000/svg">
<path d="M3.55556 32C2.57778 32 1.74074 31.6519 1.04444 30.9556C0.348148 30.2593 0 29.4222 0 28.4444V3.55556C0 2.57778 0.348148 1.74074 1.04444 1.04444C1.74074 0.348148 2.57778 0 3.55556 0H17.7778V3.55556H3.55556V28.4444H28.4444V14.2222H32V28.4444C32 29.4222 31.6519 30.2593 30.9556 30.9556C30.2593 31.6519 29.4222 32 28.4444 32H3.55556ZM5.33333 24.8889H26.6667L20 16L14.6667 23.1111L10.6667 17.7778L5.33333 24.8889ZM24.8889 10.6667V7.11111H21.3333V3.55556H24.8889V0H28.4444V3.55556H32V7.11111H28.4444V10.6667H24.8889Z" fill="black"/>
</svg>
