<svg width="12" height="15" viewBox="0 0 12 15" fill="none" xmlns="http://www.w3.org/2000/svg">
<path d="M1.875 15C1.49687 15 1.17318 14.8601 0.903906 14.5804C0.634635 14.3006 0.5 13.9643 0.5 13.5714V6.42857C0.5 6.03571 0.634635 5.69941 0.903906 5.41964C1.17318 5.13988 1.49687 5 1.875 5H2.5625V3.57143C2.5625 2.58333 2.89766 1.74107 3.56797 1.04464C4.23828 0.348214 5.04896 0 6 0C6.95104 0 7.76172 0.348214 8.43203 1.04464C9.10234 1.74107 9.4375 2.58333 9.4375 3.57143V5H10.125C10.5031 5 10.8268 5.13988 11.0961 5.41964C11.3654 5.69941 11.5 6.03571 11.5 6.42857V13.5714C11.5 13.9643 11.3654 14.3006 11.0961 14.5804C10.8268 14.8601 10.5031 15 10.125 15H1.875ZM1.875 13.5714H10.125V6.42857H1.875V13.5714ZM3.9375 5H8.0625V3.57143C8.0625 2.97619 7.86198 2.47024 7.46094 2.05357C7.0599 1.6369 6.57292 1.42857 6 1.42857C5.42708 1.42857 4.9401 1.6369 4.53906 2.05357C4.13802 2.47024 3.9375 2.97619 3.9375 3.57143V5Z" fill="black"/>
</svg>
