<svg width="20" height="20" viewBox="0 0 20 20" fill="none" xmlns="http://www.w3.org/2000/svg">
<path d="M2.12676 20C1.53245 20 1.02941 19.7941 0.617647 19.3824C0.205882 18.9706 0 18.4675 0 17.8732V2.12676C0 1.53245 0.205882 1.02941 0.617647 0.617647C1.02941 0.205882 1.53245 0 2.12676 0H10.0112V1.76471H2.12676C2.03618 1.76471 1.95324 1.80245 1.87794 1.87794C1.80245 1.95323 1.76471 2.03618 1.76471 2.12676V17.8732C1.76471 17.9638 1.80245 18.0468 1.87794 18.1221C1.95324 18.1975 2.03618 18.2353 2.12676 18.2353H10.0112V20H2.12676ZM14.9774 15.0226L13.7556 13.7465L16.62 10.8824H6.58382V9.11765H16.62L13.7556 6.25353L14.9774 4.97735L20 10L14.9774 15.0226Z" fill="#1F1F1F"/>
</svg>
