<svg width="22" height="20" viewBox="0 0 22 20" fill="none" xmlns="http://www.w3.org/2000/svg">
<path d="M11 9.57887C9.6525 9.57887 8.49902 9.10996 7.53955 8.17215C6.57985 7.2341 6.1 6.10653 6.1 4.78944C6.1 3.47234 6.57985 2.34489 7.53955 1.40707C8.49902 0.469023 9.6525 0 11 0C12.3475 0 13.501 0.469023 14.4605 1.40707C15.4201 2.34489 15.9 3.47234 15.9 4.78944C15.9 6.10653 15.4201 7.2341 14.4605 8.17215C13.501 9.10996 12.3475 9.57887 11 9.57887ZM0.5 20V16.9577C0.5 16.2876 0.6862 15.667 1.0586 15.096C1.431 14.5249 1.9287 14.0858 2.5517 13.7789C3.93537 13.1159 5.33128 12.6186 6.73945 12.287C8.14762 11.9553 9.5678 11.7895 11 11.7895C12.4322 11.7895 13.8524 11.9553 15.2605 12.287C16.6687 12.6186 18.0646 13.1159 19.4483 13.7789C20.0713 14.0858 20.569 14.5249 20.9414 15.096C21.3138 15.667 21.5 16.2876 21.5 16.9577V20H0.5ZM2.6 17.9474H19.4V16.9577C19.4 16.6806 19.3179 16.424 19.1536 16.188C18.9893 15.9521 18.7664 15.7596 18.4847 15.6105C17.2784 15.0298 16.0485 14.5899 14.795 14.2907C13.5413 13.9917 12.2763 13.8422 11 13.8422C9.72367 13.8422 8.45865 13.9917 7.20495 14.2907C5.95148 14.5899 4.72158 15.0298 3.51525 15.6105C3.23362 15.7596 3.01067 15.9521 2.8464 16.188C2.68213 16.424 2.6 16.6806 2.6 16.9577V17.9474ZM11 7.52626C11.77 7.52626 12.4292 7.25828 12.9775 6.72232C13.5258 6.18635 13.8 5.54206 13.8 4.78944C13.8 4.03681 13.5258 3.39252 12.9775 2.85656C12.4292 2.3206 11.77 2.05262 11 2.05262C10.23 2.05262 9.57083 2.3206 9.0225 2.85656C8.47417 3.39252 8.2 4.03681 8.2 4.78944C8.2 5.54206 8.47417 6.18635 9.0225 6.72232C9.57083 7.25828 10.23 7.52626 11 7.52626Z" fill="#BDBDBD"/>
</svg>
