<svg width="21" height="20" viewBox="0 0 21 20" fill="none" xmlns="http://www.w3.org/2000/svg">
<path d="M10.4 9.57887C9.06533 9.57887 7.92284 9.10996 6.97251 8.17215C6.02195 7.2341 5.54667 6.10653 5.54667 4.78944C5.54667 3.47234 6.02195 2.34489 6.97251 1.40707C7.92284 0.469023 9.06533 0 10.4 0C11.7347 0 12.8772 0.469023 13.8275 1.40707C14.7781 2.34489 15.2533 3.47234 15.2533 4.78944C15.2533 6.10653 14.7781 7.2341 13.8275 8.17215C12.8772 9.10996 11.7347 9.57887 10.4 9.57887ZM0 20V16.9577C0 16.2876 0.184427 15.667 0.55328 15.096C0.922134 14.5249 1.41509 14.0858 2.03216 13.7789C3.40265 13.1159 4.78527 12.6186 6.18003 12.287C7.57478 11.9553 8.98144 11.7895 10.4 11.7895C11.8186 11.7895 13.2252 11.9553 14.62 12.287C16.0147 12.6186 17.3974 13.1159 18.7678 13.7789C19.3849 14.0858 19.8779 14.5249 20.2467 15.096C20.6156 15.667 20.8 16.2876 20.8 16.9577V20H0ZM2.08 17.9474H18.72V16.9577C18.72 16.6806 18.6386 16.424 18.4759 16.188C18.3132 15.9521 18.0924 15.7596 17.8135 15.6105C16.6186 15.0298 15.4004 14.5899 14.1589 14.2907C12.9171 13.9917 11.6642 13.8422 10.4 13.8422C9.13582 13.8422 7.88285 13.9917 6.64109 14.2907C5.39956 14.5899 4.18138 15.0298 2.98653 15.6105C2.70758 15.7596 2.48676 15.9521 2.32405 16.188C2.16135 16.424 2.08 16.6806 2.08 16.9577V17.9474ZM10.4 7.52626C11.1627 7.52626 11.8156 7.25828 12.3587 6.72232C12.9018 6.18635 13.1733 5.54206 13.1733 4.78944C13.1733 4.03681 12.9018 3.39252 12.3587 2.85656C11.8156 2.3206 11.1627 2.05262 10.4 2.05262C9.63733 2.05262 8.98444 2.3206 8.44133 2.85656C7.89822 3.39252 7.62667 4.03681 7.62667 4.78944C7.62667 5.54206 7.89822 6.18635 8.44133 6.72232C8.98444 7.25828 9.63733 7.52626 10.4 7.52626Z" fill="black"/>
</svg>
