<svg width="31" height="31" viewBox="0 0 31 31" fill="none" xmlns="http://www.w3.org/2000/svg">
<path d="M6.45833 27.125C5.74792 27.125 5.13976 26.872 4.63385 26.3661C4.12795 25.8602 3.875 25.2521 3.875 24.5417V6.45833C3.875 5.74792 4.12795 5.13976 4.63385 4.63385C5.13976 4.12795 5.74792 3.875 6.45833 3.875H24.5417C25.2521 3.875 25.8602 4.12795 26.3661 4.63385C26.872 5.13976 27.125 5.74792 27.125 6.45833V24.5417C27.125 25.2521 26.872 25.8602 26.3661 26.3661C25.8602 26.872 25.2521 27.125 24.5417 27.125H6.45833ZM6.45833 24.5417H24.5417V6.45833H6.45833V24.5417ZM7.75 21.9583H23.25L18.4062 15.5L14.5312 20.6667L11.625 16.7917L7.75 21.9583Z" fill="black"/>
</svg>
